# xmcd
#
# Track frame offsets:
#	150
#	16938
#	36812
#	54564
#	73601
#	92863
#	109486
#	127097
#	146003
#	160785
#	180359
#	203789
#	221394
#	252129
#	267532
#	287870
#	311366
#
# Disc length: 4470 seconds
#
# Revision: 1
# Processed by: cddbd v1.5.1PL0 Copyright (c) Steve Scherf et al.
# Submitted via: CDex 1.50Beta5
#
DISCID=fc117411
DTITLE=南こうせつ - ベスト35 Disc 2
DYEAR=1998
DGENRE=
TTITLE0=夏の少女
TTITLE1=にぎやかな夕暮れ
TTITLE2=思い出にしてしまえるさ
TTITLE3=僕のグラフィティー
TTITLE4=夢一夜
TTITLE5=れくいえむ
TTITLE6=旅立つ想い
TTITLE7=オハイオの月
TTITLE8=冬仕度
TTITLE9=少年と海
TTITLE10=時が流れて風が吹く
TTITLE11=君といっしょなら
TTITLE12=房総西線
TTITLE13=夏の夜に
TTITLE14=海と君と愛の唄
TTITLE15=春風
TTITLE16=おまえが大きくなった時
EXTD=
EXTT0=
EXTT1=
EXTT2=
EXTT3=
EXTT4=
EXTT5=
EXTT6=
EXTT7=
EXTT8=
EXTT9=
EXTT10=
EXTT11=
EXTT12=
EXTT13=
EXTT14=
EXTT15=
EXTT16=
PLAYORDER=
